# xmcd CD database file
#
# Track frame offsets:
#	150
#	18247
#	42940
#	68087
#	84492
#	105482
#	122782
#	139942
#	162942
#	184520
#
# Disc length: 2788 seconds
#
# Revision: 1
# Processed by: cddbd v1.4PL0 Copyright (c) Steve Scherf et al.
# Submitted via: CDex 1.50beta10
#
DISCID=7b0ae20a
DTITLE=黃國倫 - 帶領我
DYEAR=2000
DGENRE=
TTITLE0=起來！神的兒女
TTITLE1=帶領我
TTITLE2=Shalom，平安
TTITLE3=活水江河
TTITLE4=以便以謝
TTITLE5=應許之地
TTITLE6=不住感謝，不停讚美
TTITLE7=你的恩典夠我用
TTITLE8=我願意（原唱Demo版）
TTITLE9=帶領我（Kala）
EXTD=YEAR: 2000
EXTT0=
EXTT1=
EXTT2=
EXTT3=
EXTT4=
EXTT5=
EXTT6=
EXTT7=
EXTT8=
EXTT9=
PLAYORDER=
